<svg width="324" height="226" viewBox="0 0 324 226" fill="none" xmlns="http://www.w3.org/2000/svg">
<path d="M202.421 39.7212C190.718 61.6361 178.341 84.8452 174.849 91.389L168.599 103.26L150.953 103.793C117.56 104.782 58.8622 107.978 23.8762 110.717C1.63474 112.467 -1.0612 112.772 0.286773 113.457C3.71797 115.13 91.5813 120.61 147.828 122.664L173.378 123.577L176.932 121.446C179.689 119.772 181.037 118.326 183.182 114.674C184.652 112.087 191.515 100.216 198.377 88.2697C205.301 76.3226 211.122 66.2781 211.367 65.8974C211.673 65.5935 210.938 70.8439 209.773 77.6923C204.014 111.783 188.083 211.542 187.961 214.51L187.777 217.782L195.375 221.891C199.602 224.174 203.401 226 203.83 226C204.872 226 221.109 195.79 252.602 135.067C256.279 127.914 259.587 121.903 259.894 121.675C260.2 121.446 263.692 120.99 267.614 120.686C287.588 119.24 324.903 114.141 323.983 113C323.248 112.087 284.586 107.217 266.205 105.695C255.359 104.782 255.114 104.782 252.602 106.456C249.784 108.206 248.987 109.424 227.358 146.329C221.538 156.297 216.636 164.364 216.575 164.212C216.452 164.059 218.842 149.754 221.844 132.404C229.993 85.6058 241.328 17.5017 242.125 10.8054C242.309 9.20742 241.512 8.59865 233.853 4.48957C229.135 2.05455 224.969 0 224.54 0C224.05 0 214.124 17.8821 202.421 39.7212Z" fill="#EC1540"/>
</svg>
